<svg width="20" height="20" viewBox="0 0 20 20" fill="none" xmlns="http://www.w3.org/2000/svg">
<path d="M15.8979 8.91406L12.8433 8.91406L12.8433 7.53125L15.8979 7.53125L16.3979 7.53125L16.3979 7.03125L16.3979 3.51563L16.3979 3.01563L15.8979 3.01563L12.3433 3.01563C10.1285 3.01563 8.32764 4.81648 8.32764 7.03125L8.32764 8.91406L6.48389 8.91406H5.98389L5.98389 9.41406L5.98389 12.9297L5.98389 13.4297H6.48389L8.32764 13.4297L8.32764 19.5L2.9292 19.5C1.59005 19.5 0.499512 18.4095 0.499512 17.0703L0.499512 2.92969C0.499512 1.59053 1.59005 0.5 2.9292 0.5L17.0698 0.5C18.409 0.5 19.4995 1.59053 19.4995 2.92969L19.4995 17.0703C19.4995 18.4095 18.409 19.5 17.0698 19.5L12.8433 19.5L12.8433 13.4297L15.312 13.4297H15.7356L15.8052 13.0119L16.3911 9.49626L16.4882 8.91406L15.8979 8.91406Z" fill="black" stroke="black"/>
</svg>
