<svg width="20" height="19" viewBox="0 0 20 19" fill="none" xmlns="http://www.w3.org/2000/svg">
<path d="M4.46648 16.814C5.00622 17.2509 5.82407 17.5694 7.01215 17.4437C7.01381 17.6551 7.01555 17.8429 7.01704 18.0029C7.01911 18.2262 7.02068 18.3956 7.02082 18.4998C7.00577 18.5004 6.98448 18.4998 6.95603 18.4959C3.19531 17.2613 0.5 13.8028 0.5 9.74107C0.5 4.65002 4.73878 0.5 10 0.5C15.2588 0.5 19.5 4.6501 19.5 9.74107C19.5 13.797 16.8062 17.2582 13.0169 18.4841C12.9877 18.4884 12.9654 18.4896 12.9492 18.4894C12.9493 18.3843 12.9506 18.2106 12.9523 17.9803C12.9533 17.8528 12.9543 17.7081 12.9554 17.5481C12.9585 17.0831 12.9617 16.4941 12.9617 15.8408C12.9617 15.2796 12.8521 14.8008 12.6734 14.4156C13.5669 14.2497 14.4746 13.9433 15.2184 13.3366C16.2229 12.5171 16.8492 11.2178 16.8492 9.23304C16.8492 8.15163 16.4895 7.23939 15.8892 6.50599C16.0302 6.00023 16.1644 5.0436 15.6883 3.8552L15.5999 3.63454L15.373 3.56381L15.2242 4.04116C15.373 3.56381 15.3725 3.56366 15.372 3.56351L15.371 3.56321L15.369 3.5626L15.3648 3.56133L15.3553 3.55863C15.3486 3.55675 15.3409 3.55476 15.3324 3.55269C15.3154 3.54856 15.295 3.54416 15.271 3.53995C15.2231 3.53152 15.1614 3.52389 15.0857 3.52054C14.9341 3.51383 14.7286 3.52441 14.4669 3.57842C13.9777 3.67937 13.2956 3.9311 12.3986 4.50093C11.6188 4.3101 10.8026 4.21585 9.98958 4.21111V4.21108L9.98375 4.21111C9.17047 4.21585 8.35394 4.31017 7.57387 4.50114C6.67088 3.93092 5.98576 3.67923 5.49519 3.57835C5.23281 3.5244 5.0271 3.51384 4.87534 3.52054C4.79961 3.52389 4.73791 3.53151 4.68991 3.53994C4.66594 3.54415 4.64547 3.54854 4.62845 3.55268C4.61995 3.55474 4.61232 3.55674 4.60556 3.55862L4.59607 3.56133L4.59181 3.5626L4.58981 3.56321L4.58883 3.56351C4.58836 3.56366 4.58788 3.56381 4.73667 4.04116L4.58788 3.56381L4.36094 3.63454L4.27253 3.8552C3.79895 5.03721 3.92778 5.99352 4.07921 6.51067C3.47787 7.24352 3.12 8.15432 3.12 9.23304C3.12 11.213 3.74553 12.5126 4.74758 13.3346C5.49105 13.9444 6.39876 14.2543 7.29236 14.4225C7.21428 14.5917 7.14985 14.7785 7.10219 14.9822C6.86229 15.0611 6.55823 15.1247 6.24881 15.0978C5.8564 15.0636 5.41939 14.8833 5.06026 14.2856L5.0601 14.2853L5.05214 14.2718C5.04573 14.2611 5.0371 14.247 5.02626 14.23C5.0046 14.196 4.97391 14.15 4.93421 14.0959C4.85526 13.9882 4.73818 13.8449 4.58273 13.6985C4.2747 13.4084 3.78782 13.0807 3.13115 13.0364L3.11752 13.0354L3.10385 13.0353L3.0975 13.5352C3.10385 13.0353 3.1037 13.0353 3.10354 13.0353L3.10321 13.0353L3.10247 13.0353L3.10072 13.0352L3.09611 13.0352L3.08267 13.0353C3.07195 13.0353 3.05763 13.0356 3.04048 13.0362C3.00662 13.0373 2.95953 13.0398 2.90599 13.0456C2.81859 13.0549 2.63911 13.0793 2.48061 13.1671C2.39684 13.2135 2.26966 13.3045 2.19565 13.4689C2.11366 13.6511 2.13581 13.8344 2.19672 13.9765C2.25184 14.1051 2.34046 14.2085 2.42466 14.2891C2.51273 14.3734 2.62206 14.4573 2.75016 14.5427L2.78331 14.5648L2.81246 14.5782C2.81314 14.5785 2.81397 14.579 2.81495 14.5795C2.82227 14.5836 2.83791 14.5926 2.86031 14.6075C2.90507 14.6373 2.97707 14.6908 3.06408 14.7756C3.23519 14.9424 3.47107 15.237 3.67095 15.7256C3.67276 15.7308 3.67484 15.7367 3.67719 15.7432C3.68501 15.7648 3.6959 15.7931 3.71031 15.8271C3.73908 15.895 3.78223 15.9861 3.8435 16.0908C3.96575 16.2999 4.16306 16.5684 4.46648 16.814Z" fill="#212121" stroke="black"/>
</svg>
