<svg width="20" height="20" viewBox="0 0 20 20" fill="none" xmlns="http://www.w3.org/2000/svg">
<path d="M6.24951 0.5L13.7495 0.5C16.9246 0.5 19.4995 3.07489 19.4995 6.25L19.4995 13.75C19.4995 16.9251 16.9246 19.5 13.7495 19.5L6.24951 19.5C3.0744 19.5 0.499512 16.9251 0.499512 13.75L0.499512 6.25C0.499512 3.07489 3.0744 0.5 6.24951 0.5ZM13.7495 18.625C16.4382 18.625 18.6245 16.4386 18.6245 13.75L18.6245 6.25C18.6245 3.56136 16.4382 1.375 13.7495 1.375L6.24951 1.375C3.56087 1.375 1.37451 3.56136 1.37451 6.25L1.37451 13.75C1.37451 16.4386 3.56087 18.625 6.24951 18.625L13.7495 18.625Z" fill="black" stroke="black"/>
<path d="M5.49951 10C5.49951 7.51489 7.5144 5.5 9.99951 5.5C12.4846 5.5 14.4995 7.51489 14.4995 10C14.4995 12.4851 12.4846 14.5 9.99951 14.5C7.5144 14.5 5.49951 12.4851 5.49951 10ZM6.37451 10C6.37451 11.9986 8.00087 13.625 9.99951 13.625C11.9982 13.625 13.6245 11.9986 13.6245 10C13.6245 7.99998 11.998 6.375 9.99951 6.375C8.001 6.375 6.37451 7.99998 6.37451 10Z" fill="black" stroke="black"/>
<path d="M15.5408 4.62499C15.5408 4.7168 15.4663 4.79123 15.3745 4.79123C15.2827 4.79123 15.2083 4.7168 15.2083 4.62499C15.2083 4.53317 15.2827 4.45874 15.3745 4.45874C15.4663 4.45874 15.5408 4.53317 15.5408 4.62499Z" fill="black" stroke="black"/>
</svg>
