<svg width="20" height="19" fill="none" xmlns="http://www.w3.org/2000/svg"><path d="M4.466 16.814c.54.437 1.358.755 2.546.63a371.238 371.238 0 00.009 1.056c-.015 0-.037 0-.065-.004C3.196 17.26.5 13.803.5 9.74.5 4.65 4.739.5 10 .5c5.259 0 9.5 4.15 9.5 9.241 0 4.056-2.694 7.517-6.483 8.743a.434.434 0 01-.068.005l.003-.509a466.325 466.325 0 00.01-2.14c0-.56-.11-1.04-.289-1.424.894-.166 1.802-.473 2.545-1.08 1.005-.819 1.631-2.118 1.631-4.103a4.21 4.21 0 00-.96-2.727c.141-.506.275-1.462-.2-2.65l-.09-.221-.226-.071-.149.477.148-.477h-.001l-.002-.001-.004-.002-.01-.002a.694.694 0 00-.084-.02 1.44 1.44 0 00-.185-.018 2.525 2.525 0 00-.62.057c-.488.101-1.17.353-2.067.923-.78-.19-1.596-.285-2.41-.29v0h-.005c-.814.005-1.63.1-2.41.29-.903-.57-1.588-.822-2.079-.923a2.537 2.537 0 00-.62-.057 1.444 1.444 0 00-.27.038l-.009.002-.004.002h-.003l.148.478-.15-.477-.226.07-.088.221c-.474 1.182-.345 2.139-.194 2.656a4.195 4.195 0 00-.959 2.722c0 1.98.626 3.28 1.628 4.102.743.61 1.65.92 2.544 1.087-.078.17-.142.356-.19.56-.24.08-.544.143-.853.116-.393-.034-.83-.215-1.189-.812h0l-.008-.014a1.765 1.765 0 00-.118-.176 2.932 2.932 0 00-.351-.398c-.308-.29-.795-.617-1.452-.662h-.027l-.006.5.006-.5h0-.064a1.805 1.805 0 00-.134.01 1.15 1.15 0 00-.425.121.656.656 0 00-.285.302.626.626 0 000 .508.972.972 0 00.229.312c.088.084.197.168.325.254l.033.022.03.013.002.002a1.445 1.445 0 01.25.196c.17.166.406.461.606.95a1.554 1.554 0 00.04.101c.028.068.071.16.133.264.122.209.32.477.622.723z" fill="#212121" stroke="#000"/></svg>