<svg width="20" height="20" fill="none" xmlns="http://www.w3.org/2000/svg"><path d="M6.25.5h7.5a5.75 5.75 0 015.75 5.75v7.5a5.75 5.75 0 01-5.75 5.75h-7.5A5.75 5.75 0 01.5 13.75v-7.5A5.75 5.75 0 016.25.5zm7.5 18.125a4.88 4.88 0 004.875-4.875v-7.5a4.88 4.88 0 00-4.876-4.875h-7.5A4.88 4.88 0 001.376 6.25v7.5a4.88 4.88 0 004.875 4.875h7.5z" fill="#000" stroke="#000"/><path d="M5.5 10a4.5 4.5 0 119 0 4.5 4.5 0 01-9 0zm.875 0A3.63 3.63 0 0010 13.625 3.63 3.63 0 0013.624 10c0-2-1.626-3.625-3.624-3.625A3.629 3.629 0 006.375 10zm9.165-5.375a.166.166 0 11-.332 0 .166.166 0 01.333 0z" fill="#000" stroke="#000"/></svg>